<svg width="50" height="50" viewBox="0 0 50 50" fill="none" xmlns="http://www.w3.org/2000/svg">
<circle cx="25" cy="25" r="25" fill="#00CCFF"/>
<path d="M21 26L24 24L26 26L29 24M16 33.0001L17.3 29.1001C16.1764 27.4384 15.77 25.4705 16.1562 23.5624C16.5424 21.6543 17.6951 19.9358 19.3998 18.7264C21.1045 17.517 23.2453 16.899 25.4241 16.9873C27.6029 17.0757 29.6715 17.8643 31.2453 19.2066C32.819 20.549 33.7909 22.3536 33.9801 24.2851C34.1693 26.2165 33.563 28.1433 32.2739 29.7072C30.9848 31.2711 29.1007 32.3657 26.9718 32.7874C24.8429 33.2092 22.6142 32.9294 20.7 32.0001L16 33.0001Z" stroke="white" stroke-width="2" stroke-linecap="round" stroke-linejoin="round"/>
</svg>
