<svg width="24" height="24" viewBox="0 0 24 24" fill="none" xmlns="http://www.w3.org/2000/svg">
<path d="M12 17H4C3.73478 17 3.48043 16.8946 3.29289 16.7071C3.10536 16.5196 3 16.2652 3 16V4C3 3.73478 3.10536 3.48043 3.29289 3.29289C3.48043 3.10536 3.73478 3 4 3H20C20.2652 3 20.5196 3.10536 20.7071 3.29289C20.8946 3.48043 21 3.73478 21 4V11.5M19 18V18.01M3 13H14M8 21H12.5M10 17L9.5 21M21.121 20.1212C21.5407 19.7016 21.8265 19.1671 21.9423 18.5851C22.0581 18.0031 21.9988 17.3999 21.7717 16.8517C21.5447 16.3034 21.1602 15.8349 20.6668 15.5052C20.1734 15.1755 19.5934 14.9995 19 14.9995C18.4066 14.9995 17.8266 15.1755 17.3332 15.5052C16.8398 15.8349 16.4553 16.3034 16.2283 16.8517C16.0012 17.3999 15.9419 18.0031 16.0577 18.5851C16.1735 19.1671 16.4594 19.7016 16.879 20.1212C17.297 20.5402 18.004 21.1662 19 22.0002C20.051 21.1102 20.759 20.4842 21.121 20.1212Z" stroke="black" stroke-width="2" stroke-linecap="round" stroke-linejoin="round"/>
</svg>
