<svg width="50" height="50" viewBox="0 0 50 50" fill="none" xmlns="http://www.w3.org/2000/svg">
<circle cx="25" cy="25" r="25" fill="#00CCFF"/>
<path d="M16 25H17M25 16V17M33 25H34M18.6 18.6L19.3 19.3M31.4 18.6L30.7 19.3M22.7002 30H27.3002M22 29C21.1605 28.3704 20.5403 27.4925 20.2274 26.4908C19.9145 25.4892 19.9247 24.4144 20.2566 23.4189C20.5884 22.4233 21.2251 21.5574 22.0764 20.9438C22.9278 20.3302 23.9506 20 25 20C26.0494 20 27.0722 20.3302 27.9236 20.9438C28.7749 21.5574 29.4116 22.4233 29.7434 23.4189C30.0753 24.4144 30.0855 25.4892 29.7726 26.4908C29.4597 27.4925 28.8395 28.3704 28 29C27.6096 29.3865 27.3156 29.8594 27.1419 30.3806C26.9681 30.9018 26.9195 31.4566 27 32C27 32.5304 26.7893 33.0391 26.4142 33.4142C26.0391 33.7893 25.5304 34 25 34C24.4696 34 23.9609 33.7893 23.5858 33.4142C23.2107 33.0391 23 32.5304 23 32C23.0805 31.4566 23.0319 30.9018 22.8581 30.3806C22.6844 29.8594 22.3904 29.3865 22 29Z" stroke="white" stroke-width="2" stroke-linecap="round" stroke-linejoin="round"/>
</svg>
