<svg width="228" height="130" viewBox="0 0 228 130" fill="none" xmlns="http://www.w3.org/2000/svg">
<g filter="url(#filter0_bd_40_5073)">
<rect x="4" y="2" width="220" height="122" rx="14" fill="white" fill-opacity="0.71" shape-rendering="crispEdges"/>
<path d="M125.042 30.3759C128.372 32.2991 131.143 35.0587 133.079 38.3818C135.016 41.7048 136.051 45.476 136.082 49.322C136.113 53.1679 135.139 56.9553 133.257 60.3092C131.374 63.6631 128.648 66.4672 125.349 68.4439C122.05 70.4206 118.291 71.5013 114.446 71.5791C110.601 71.657 106.802 70.7292 103.425 68.8876C100.049 67.046 97.2118 64.3545 95.1951 61.0795C93.1785 57.8045 92.0521 54.0597 91.9275 50.2156L91.9165 49.5001L91.9275 48.7846C92.0512 44.9708 93.161 41.2541 95.1487 37.9969C97.1364 34.7396 99.9342 32.053 103.269 30.199C106.604 28.3449 110.363 27.3867 114.179 27.4177C117.994 27.4487 121.737 28.4679 125.042 30.3759ZM122.186 43.5221C121.806 43.1419 121.3 42.9135 120.763 42.8798C120.227 42.846 119.696 43.0092 119.271 43.3388L119.064 43.5221L111.792 50.792L108.936 47.9388L108.729 47.7555C108.304 47.4261 107.773 47.2631 107.237 47.297C106.7 47.3308 106.194 47.5592 105.814 47.9394C105.434 48.3195 105.206 48.8253 105.172 49.3619C105.138 49.8984 105.301 50.4289 105.63 50.8538L105.814 51.0614L110.23 55.478L110.438 55.6613C110.825 55.9618 111.301 56.1249 111.792 56.1249C112.282 56.1249 112.758 55.9618 113.145 55.6613L113.353 55.478L122.186 46.6447L122.369 46.4371C122.699 46.0122 122.862 45.4817 122.829 44.945C122.795 44.4083 122.566 43.9024 122.186 43.5221Z" fill="#5EEAD1"/>
<path d="M45.576 95.444V94.24H47.858C48.3433 94.24 48.7447 94.1467 49.062 93.96C49.3793 93.764 49.6173 93.5027 49.776 93.176C49.944 92.8493 50.028 92.4853 50.028 92.084C50.028 91.6733 49.944 91.3047 49.776 90.978C49.6173 90.6513 49.3793 90.3947 49.062 90.208C48.7447 90.0213 48.3433 89.928 47.858 89.928H45.576V88.724H47.606C48.446 88.724 49.146 88.8593 49.706 89.13C50.2753 89.3913 50.7047 89.7647 50.994 90.25C51.2833 90.7353 51.428 91.3093 51.428 91.972V92.196C51.428 92.8493 51.2833 93.4233 50.994 93.918C50.7047 94.4033 50.2753 94.7813 49.706 95.052C49.146 95.3133 48.446 95.444 47.606 95.444H45.576ZM44.484 99V88.724H45.856V99H44.484ZM57.683 99V96.76H57.459V94.17C57.459 93.6567 57.3237 93.2693 57.053 93.008C56.7917 92.7467 56.4044 92.616 55.891 92.616C55.6017 92.616 55.303 92.6207 54.995 92.63C54.687 92.6393 54.393 92.6487 54.113 92.658C53.833 92.6673 53.5904 92.6813 53.385 92.7V91.524C53.5904 91.5053 53.805 91.4913 54.029 91.482C54.2624 91.4633 54.5004 91.454 54.743 91.454C54.9857 91.4447 55.219 91.44 55.443 91.44C56.2084 91.44 56.8337 91.5333 57.319 91.72C57.8044 91.8973 58.1637 92.1913 58.397 92.602C58.6304 93.0127 58.747 93.568 58.747 94.268V99H57.683ZM55.233 99.196C54.673 99.196 54.1877 99.1027 53.777 98.916C53.3757 98.72 53.063 98.44 52.839 98.076C52.6244 97.712 52.517 97.2733 52.517 96.76C52.517 96.228 52.6337 95.7847 52.867 95.43C53.1097 95.0753 53.4597 94.8093 53.917 94.632C54.3744 94.4453 54.925 94.352 55.569 94.352H57.599V95.36H55.513C54.9717 95.36 54.5564 95.4907 54.267 95.752C53.9777 96.0133 53.833 96.3493 53.833 96.76C53.833 97.1707 53.9777 97.502 54.267 97.754C54.5564 98.006 54.9717 98.132 55.513 98.132C55.8304 98.132 56.1337 98.076 56.423 97.964C56.7124 97.8427 56.9504 97.6467 57.137 97.376C57.333 97.096 57.4404 96.7133 57.459 96.228L57.823 96.76C57.7764 97.292 57.6457 97.74 57.431 98.104C57.2257 98.4587 56.9364 98.7293 56.563 98.916C56.199 99.1027 55.7557 99.196 55.233 99.196ZM60.6824 101.912V100.708H61.7604C62.0778 100.708 62.3438 100.666 62.5584 100.582C62.7824 100.507 62.9644 100.377 63.1044 100.19C63.2538 100.003 63.3751 99.756 63.4684 99.448L65.8204 91.524H67.1364L64.6444 99.798C64.4951 100.293 64.2851 100.694 64.0144 101.002C63.7438 101.319 63.4124 101.548 63.0204 101.688C62.6378 101.837 62.1898 101.912 61.6764 101.912H60.6824ZM62.9644 98.832V97.712H64.5884V98.832H62.9644ZM62.8244 98.832L60.1504 91.524H61.5224L64.0844 98.832H62.8244ZM68.8427 99V91.524H69.9067V94.73H69.7387C69.7387 94.002 69.832 93.386 70.0187 92.882C70.2147 92.3687 70.504 91.9767 70.8867 91.706C71.2694 91.4353 71.7547 91.3 72.3427 91.3H72.3987C72.9867 91.3 73.472 91.4353 73.8547 91.706C74.2467 91.9767 74.536 92.3687 74.7227 92.882C74.9094 93.386 75.0027 94.002 75.0027 94.73H74.6107C74.6107 94.002 74.7087 93.386 74.9047 92.882C75.1007 92.3687 75.39 91.9767 75.7727 91.706C76.1647 91.4353 76.6547 91.3 77.2427 91.3H77.2987C77.8867 91.3 78.3767 91.4353 78.7687 91.706C79.1607 91.9767 79.45 92.3687 79.6367 92.882C79.8327 93.386 79.9307 94.002 79.9307 94.73V99H78.5867V94.436C78.5867 93.8293 78.4374 93.3627 78.1387 93.036C77.84 92.7 77.4247 92.532 76.8927 92.532C76.342 92.532 75.8987 92.7093 75.5627 93.064C75.2267 93.4093 75.0587 93.8947 75.0587 94.52V99H73.7147V94.436C73.7147 93.8293 73.5654 93.3627 73.2667 93.036C72.968 92.7 72.5527 92.532 72.0207 92.532C71.47 92.532 71.0267 92.7093 70.6907 93.064C70.3547 93.4093 70.1867 93.8947 70.1867 94.52V99H68.8427ZM85.5695 99.252C84.9162 99.252 84.3515 99.14 83.8755 98.916C83.3995 98.692 83.0122 98.398 82.7135 98.034C82.4148 97.6607 82.1908 97.2453 82.0415 96.788C81.9015 96.3307 81.8315 95.864 81.8315 95.388V95.136C81.8315 94.6507 81.9015 94.1793 82.0415 93.722C82.1908 93.2647 82.4148 92.854 82.7135 92.49C83.0122 92.1167 83.3902 91.8227 83.8475 91.608C84.3142 91.384 84.8602 91.272 85.4855 91.272C86.2975 91.272 86.9648 91.4493 87.4875 91.804C88.0195 92.1493 88.4115 92.5973 88.6635 93.148C88.9248 93.6987 89.0555 94.2867 89.0555 94.912V95.514H82.4195V94.506H88.0755L87.7675 95.052C87.7675 94.52 87.6835 94.0627 87.5155 93.68C87.3475 93.288 87.0955 92.9847 86.7595 92.77C86.4235 92.5553 85.9988 92.448 85.4855 92.448C84.9535 92.448 84.5102 92.5693 84.1555 92.812C83.8102 93.0547 83.5488 93.386 83.3715 93.806C83.2035 94.226 83.1195 94.7113 83.1195 95.262C83.1195 95.794 83.2035 96.2747 83.3715 96.704C83.5488 97.124 83.8195 97.46 84.1835 97.712C84.5475 97.9547 85.0095 98.076 85.5695 98.076C86.1575 98.076 86.6335 97.9453 86.9975 97.684C87.3708 97.4227 87.5948 97.1193 87.6695 96.774H88.9295C88.8268 97.2873 88.6215 97.7307 88.3135 98.104C88.0055 98.4773 87.6182 98.762 87.1515 98.958C86.6848 99.154 86.1575 99.252 85.5695 99.252ZM90.9638 99V91.524H92.0278V94.73H91.8598C91.8598 93.9927 91.9578 93.372 92.1538 92.868C92.3591 92.3547 92.6671 91.9673 93.0778 91.706C93.4884 91.4353 94.0064 91.3 94.6318 91.3H94.6878C95.6304 91.3 96.3258 91.594 96.7738 92.182C97.2311 92.77 97.4598 93.6193 97.4598 94.73V99H96.1158V94.45C96.1158 93.8713 95.9524 93.4093 95.6258 93.064C95.2991 92.7093 94.8511 92.532 94.2818 92.532C93.6938 92.532 93.2178 92.714 92.8538 93.078C92.4898 93.442 92.3078 93.9273 92.3078 94.534V99H90.9638ZM102.831 99.084C102.271 99.084 101.786 99.0047 101.375 98.846C100.974 98.6873 100.661 98.4167 100.437 98.034C100.222 97.642 100.115 97.1147 100.115 96.452V89.256H101.403V96.62C101.403 97.0213 101.51 97.334 101.725 97.558C101.949 97.7727 102.262 97.88 102.663 97.88H103.979V99.084H102.831ZM98.8269 92.532V91.524H103.979V92.532H98.8269ZM112.579 99.252C111.73 99.252 111.007 99.112 110.409 98.832C109.812 98.552 109.355 98.1647 109.037 97.67C108.72 97.1753 108.561 96.6153 108.561 95.99H109.933C109.933 96.298 110.013 96.606 110.171 96.914C110.339 97.222 110.615 97.4787 110.997 97.684C111.389 97.8893 111.917 97.992 112.579 97.992C113.195 97.992 113.699 97.9033 114.091 97.726C114.483 97.5393 114.773 97.3013 114.959 97.012C115.146 96.7133 115.239 96.3913 115.239 96.046C115.239 95.626 115.057 95.2807 114.693 95.01C114.329 94.73 113.797 94.5573 113.097 94.492L111.963 94.394C111.058 94.3193 110.335 94.0393 109.793 93.554C109.252 93.0687 108.981 92.4293 108.981 91.636C108.981 91.0107 109.131 90.4647 109.429 89.998C109.737 89.5313 110.162 89.1673 110.703 88.906C111.245 88.6353 111.875 88.5 112.593 88.5C113.303 88.5 113.928 88.6307 114.469 88.892C115.011 89.1533 115.431 89.522 115.729 89.998C116.037 90.4647 116.191 91.0247 116.191 91.678H114.819C114.819 91.3513 114.74 91.0433 114.581 90.754C114.432 90.4647 114.194 90.2267 113.867 90.04C113.541 89.8533 113.116 89.76 112.593 89.76C112.089 89.76 111.669 89.8487 111.333 90.026C111.007 90.2033 110.759 90.4367 110.591 90.726C110.433 91.006 110.353 91.3093 110.353 91.636C110.353 92.0093 110.498 92.3407 110.787 92.63C111.077 92.9193 111.506 93.0873 112.075 93.134L113.209 93.232C113.909 93.288 114.511 93.4373 115.015 93.68C115.529 93.9133 115.921 94.2307 116.191 94.632C116.471 95.024 116.611 95.4953 116.611 96.046C116.611 96.6713 116.443 97.2267 116.107 97.712C115.771 98.1973 115.3 98.5753 114.693 98.846C114.087 99.1167 113.382 99.252 112.579 99.252ZM121.308 99.224C120.421 99.224 119.74 98.9347 119.264 98.356C118.788 97.7773 118.55 96.942 118.55 95.85V91.51H119.894V96.116C119.894 96.704 120.052 97.166 120.37 97.502C120.687 97.8287 121.116 97.992 121.658 97.992C122.218 97.992 122.675 97.8147 123.03 97.46C123.384 97.096 123.562 96.6013 123.562 95.976V91.51H124.906V99H123.842V95.794H124.01C124.01 96.5313 123.912 97.1567 123.716 97.67C123.52 98.174 123.226 98.5613 122.834 98.832C122.451 99.0933 121.961 99.224 121.364 99.224H121.308ZM130.715 99.252C130.071 99.252 129.511 99.14 129.035 98.916C128.568 98.692 128.181 98.3933 127.873 98.02C127.565 97.6373 127.331 97.2173 127.173 96.76C127.023 96.3027 126.949 95.8453 126.949 95.388V95.136C126.949 94.66 127.023 94.1933 127.173 93.736C127.331 93.2787 127.565 92.868 127.873 92.504C128.19 92.1307 128.582 91.832 129.049 91.608C129.515 91.384 130.061 91.272 130.687 91.272C131.312 91.272 131.872 91.3887 132.367 91.622C132.871 91.8553 133.272 92.1867 133.571 92.616C133.879 93.036 134.051 93.5353 134.089 94.114H132.801C132.735 93.6473 132.521 93.26 132.157 92.952C131.793 92.6347 131.303 92.476 130.687 92.476C130.155 92.476 129.711 92.5973 129.357 92.84C129.002 93.0827 128.736 93.414 128.559 93.834C128.381 94.254 128.293 94.73 128.293 95.262C128.293 95.7753 128.381 96.2467 128.559 96.676C128.736 97.096 129.002 97.432 129.357 97.684C129.721 97.9267 130.173 98.048 130.715 98.048C131.135 98.048 131.499 97.9733 131.807 97.824C132.115 97.6747 132.362 97.474 132.549 97.222C132.735 96.97 132.847 96.6853 132.885 96.368H134.173C134.145 96.956 133.972 97.4647 133.655 97.894C133.347 98.3233 132.936 98.6593 132.423 98.902C131.919 99.1353 131.349 99.252 130.715 99.252ZM139.205 99.252C138.561 99.252 138.001 99.14 137.525 98.916C137.058 98.692 136.671 98.3933 136.363 98.02C136.055 97.6373 135.822 97.2173 135.663 96.76C135.514 96.3027 135.439 95.8453 135.439 95.388V95.136C135.439 94.66 135.514 94.1933 135.663 93.736C135.822 93.2787 136.055 92.868 136.363 92.504C136.68 92.1307 137.072 91.832 137.539 91.608C138.006 91.384 138.552 91.272 139.177 91.272C139.802 91.272 140.362 91.3887 140.857 91.622C141.361 91.8553 141.762 92.1867 142.061 92.616C142.369 93.036 142.542 93.5353 142.579 94.114H141.291C141.226 93.6473 141.011 93.26 140.647 92.952C140.283 92.6347 139.793 92.476 139.177 92.476C138.645 92.476 138.202 92.5973 137.847 92.84C137.492 93.0827 137.226 93.414 137.049 93.834C136.872 94.254 136.783 94.73 136.783 95.262C136.783 95.7753 136.872 96.2467 137.049 96.676C137.226 97.096 137.492 97.432 137.847 97.684C138.211 97.9267 138.664 98.048 139.205 98.048C139.625 98.048 139.989 97.9733 140.297 97.824C140.605 97.6747 140.852 97.474 141.039 97.222C141.226 96.97 141.338 96.6853 141.375 96.368H142.663C142.635 96.956 142.462 97.4647 142.145 97.894C141.837 98.3233 141.426 98.6593 140.913 98.902C140.409 99.1353 139.84 99.252 139.205 99.252ZM147.667 99.252C147.014 99.252 146.449 99.14 145.973 98.916C145.497 98.692 145.11 98.398 144.811 98.034C144.513 97.6607 144.289 97.2453 144.139 96.788C143.999 96.3307 143.929 95.864 143.929 95.388V95.136C143.929 94.6507 143.999 94.1793 144.139 93.722C144.289 93.2647 144.513 92.854 144.811 92.49C145.11 92.1167 145.488 91.8227 145.945 91.608C146.412 91.384 146.958 91.272 147.583 91.272C148.395 91.272 149.063 91.4493 149.585 91.804C150.117 92.1493 150.509 92.5973 150.761 93.148C151.023 93.6987 151.153 94.2867 151.153 94.912V95.514H144.517V94.506H150.173L149.865 95.052C149.865 94.52 149.781 94.0627 149.613 93.68C149.445 93.288 149.193 92.9847 148.857 92.77C148.521 92.5553 148.097 92.448 147.583 92.448C147.051 92.448 146.608 92.5693 146.253 92.812C145.908 93.0547 145.647 93.386 145.469 93.806C145.301 94.226 145.217 94.7113 145.217 95.262C145.217 95.794 145.301 96.2747 145.469 96.704C145.647 97.124 145.917 97.46 146.281 97.712C146.645 97.9547 147.107 98.076 147.667 98.076C148.255 98.076 148.731 97.9453 149.095 97.684C149.469 97.4227 149.693 97.1193 149.767 96.774H151.027C150.925 97.2873 150.719 97.7307 150.411 98.104C150.103 98.4773 149.716 98.762 149.249 98.958C148.783 99.154 148.255 99.252 147.667 99.252ZM155.511 99.224C154.531 99.224 153.771 99.014 153.229 98.594C152.697 98.174 152.422 97.6 152.403 96.872H153.663C153.682 97.1613 153.827 97.4367 154.097 97.698C154.377 97.95 154.849 98.076 155.511 98.076C156.109 98.076 156.566 97.9593 156.883 97.726C157.201 97.4833 157.359 97.1893 157.359 96.844C157.359 96.536 157.243 96.298 157.009 96.13C156.776 95.9527 156.398 95.836 155.875 95.78L155.063 95.696C154.354 95.6213 153.775 95.4113 153.327 95.066C152.879 94.7113 152.655 94.2167 152.655 93.582C152.655 93.106 152.777 92.7 153.019 92.364C153.262 92.0187 153.598 91.7573 154.027 91.58C154.457 91.3933 154.951 91.3 155.511 91.3C156.351 91.3 157.033 91.4867 157.555 91.86C158.078 92.2333 158.349 92.7887 158.367 93.526H157.107C157.098 93.2273 156.958 92.9753 156.687 92.77C156.426 92.5553 156.034 92.448 155.511 92.448C154.989 92.448 154.592 92.5553 154.321 92.77C154.051 92.9847 153.915 93.2553 153.915 93.582C153.915 93.862 154.009 94.086 154.195 94.254C154.391 94.422 154.709 94.5293 155.147 94.576L155.959 94.66C156.762 94.744 157.406 94.968 157.891 95.332C158.377 95.6867 158.619 96.1907 158.619 96.844C158.619 97.3107 158.484 97.726 158.213 98.09C157.952 98.4447 157.588 98.7247 157.121 98.93C156.655 99.126 156.118 99.224 155.511 99.224ZM163.017 99.224C162.037 99.224 161.277 99.014 160.735 98.594C160.203 98.174 159.928 97.6 159.909 96.872H161.169C161.188 97.1613 161.333 97.4367 161.603 97.698C161.883 97.95 162.355 98.076 163.017 98.076C163.615 98.076 164.072 97.9593 164.389 97.726C164.707 97.4833 164.865 97.1893 164.865 96.844C164.865 96.536 164.749 96.298 164.515 96.13C164.282 95.9527 163.904 95.836 163.381 95.78L162.569 95.696C161.86 95.6213 161.281 95.4113 160.833 95.066C160.385 94.7113 160.161 94.2167 160.161 93.582C160.161 93.106 160.283 92.7 160.525 92.364C160.768 92.0187 161.104 91.7573 161.533 91.58C161.963 91.3933 162.457 91.3 163.017 91.3C163.857 91.3 164.539 91.4867 165.061 91.86C165.584 92.2333 165.855 92.7887 165.873 93.526H164.613C164.604 93.2273 164.464 92.9753 164.193 92.77C163.932 92.5553 163.54 92.448 163.017 92.448C162.495 92.448 162.098 92.5553 161.827 92.77C161.557 92.9847 161.421 93.2553 161.421 93.582C161.421 93.862 161.515 94.086 161.701 94.254C161.897 94.422 162.215 94.5293 162.653 94.576L163.465 94.66C164.268 94.744 164.912 94.968 165.397 95.332C165.883 95.6867 166.125 96.1907 166.125 96.844C166.125 97.3107 165.99 97.726 165.719 98.09C165.458 98.4447 165.094 98.7247 164.627 98.93C164.161 99.126 163.624 99.224 163.017 99.224ZM168.269 99V91.146C168.269 90.3153 168.488 89.704 168.927 89.312C169.366 88.92 170.01 88.724 170.859 88.724H171.783V89.844H170.635C170.29 89.844 170.024 89.942 169.837 90.138C169.65 90.3247 169.557 90.586 169.557 90.922V99H168.269ZM167.233 92.616V91.608H171.923V92.616H167.233ZM175.968 99.224C175.081 99.224 174.4 98.9347 173.924 98.356C173.448 97.7773 173.21 96.942 173.21 95.85V91.51H174.554V96.116C174.554 96.704 174.713 97.166 175.03 97.502C175.347 97.8287 175.777 97.992 176.318 97.992C176.878 97.992 177.335 97.8147 177.69 97.46C178.045 97.096 178.222 96.6013 178.222 95.976V91.51H179.566V99H178.502V95.794H178.67C178.67 96.5313 178.572 97.1567 178.376 97.67C178.18 98.174 177.886 98.5613 177.494 98.832C177.111 99.0933 176.621 99.224 176.024 99.224H175.968ZM182.253 99V88.78H183.597V99H182.253ZM181.217 89.844V88.78H183.597V89.844H181.217Z" fill="black" fill-opacity="0.5"/>
</g>
<defs>
<filter id="filter0_bd_40_5073" x="-8" y="-10" width="244" height="146" filterUnits="userSpaceOnUse" color-interpolation-filters="sRGB">
<feFlood flood-opacity="0" result="BackgroundImageFix"/>
<feGaussianBlur in="BackgroundImageFix" stdDeviation="6"/>
<feComposite in2="SourceAlpha" operator="in" result="effect1_backgroundBlur_40_5073"/>
<feColorMatrix in="SourceAlpha" type="matrix" values="0 0 0 0 0 0 0 0 0 0 0 0 0 0 0 0 0 0 127 0" result="hardAlpha"/>
<feOffset dy="2"/>
<feGaussianBlur stdDeviation="2"/>
<feComposite in2="hardAlpha" operator="out"/>
<feColorMatrix type="matrix" values="0 0 0 0 0 0 0 0 0 0 0 0 0 0 0 0 0 0 0.25 0"/>
<feBlend mode="normal" in2="effect1_backgroundBlur_40_5073" result="effect2_dropShadow_40_5073"/>
<feBlend mode="normal" in="SourceGraphic" in2="effect2_dropShadow_40_5073" result="shape"/>
</filter>
</defs>
</svg>
