<svg width="236" height="120" viewBox="0 0 236 120" fill="none" xmlns="http://www.w3.org/2000/svg">
<g filter="url(#filter0_bd_40_5078)">
<rect x="4" y="2" width="228" height="112" rx="14" fill="white" fill-opacity="0.71" shape-rendering="crispEdges"/>
<path d="M59.52 57V36.56H66.044L74.64 53.696H75.564L75.004 54.2V36.56H78.756V57H72.204L63.608 39.864H62.656L63.216 39.36V57H59.52ZM83.1013 57V53.08C83.1013 52.2213 83.2319 51.4747 83.4933 50.84C83.7733 50.2053 84.2213 49.6453 84.8373 49.16C85.4719 48.656 86.3026 48.18 87.3293 47.732L90.8013 46.192C91.6599 45.8 92.3133 45.324 92.7613 44.764C93.2279 44.1853 93.4613 43.448 93.4613 42.552C93.4613 41.5627 93.1626 40.7787 92.5653 40.2C91.9866 39.6027 91.1559 39.304 90.0733 39.304C88.9906 39.304 88.1506 39.6027 87.5533 40.2C86.9746 40.7973 86.6853 41.628 86.6853 42.692H82.8493C82.8493 41.4227 83.1199 40.284 83.6613 39.276C84.2026 38.2493 85.0053 37.4467 86.0693 36.868C87.1333 36.2707 88.4679 35.972 90.0733 35.972C91.6786 35.972 93.0133 36.2613 94.0773 36.84C95.1413 37.4187 95.9439 38.1933 96.4853 39.164C97.0266 40.116 97.2973 41.18 97.2973 42.356V42.72C97.2973 44.2507 96.8679 45.5293 96.0093 46.556C95.1506 47.564 93.8906 48.4413 92.2293 49.188L88.7573 50.728C88.1039 51.008 87.6466 51.3067 87.3853 51.624C87.1239 51.9227 86.9933 52.3333 86.9933 52.856V54.648L86.0413 53.612H97.3813V57H83.1013ZM109.448 57.532C107.843 57.532 106.48 57.2707 105.36 56.748C104.24 56.2067 103.325 55.4787 102.616 54.564C101.907 53.6307 101.384 52.5667 101.048 51.372C100.731 50.1587 100.572 48.8893 100.572 47.564V45.996C100.572 44.1107 100.889 42.412 101.524 40.9C102.159 39.388 103.129 38.1933 104.436 37.316C105.743 36.42 107.413 35.972 109.448 35.972C111.464 35.972 113.125 36.42 114.432 37.316C115.739 38.1933 116.7 39.388 117.316 40.9C117.951 42.412 118.268 44.1107 118.268 45.996V47.564C118.268 48.8893 118.1 50.1587 117.764 51.372C117.447 52.5667 116.933 53.6307 116.224 54.564C115.533 55.4787 114.628 56.2067 113.508 56.748C112.388 57.2707 111.035 57.532 109.448 57.532ZM109.448 53.892C111.109 53.892 112.332 53.3227 113.116 52.184C113.9 51.0267 114.292 49.2347 114.292 46.808C114.292 44.232 113.891 42.3933 113.088 41.292C112.285 40.172 111.072 39.612 109.448 39.612C107.805 39.612 106.573 40.172 105.752 41.292C104.949 42.3933 104.548 44.2133 104.548 46.752C104.548 49.1973 104.949 50.9987 105.752 52.156C106.555 53.3133 107.787 53.892 109.448 53.892ZM130.612 57.532C129.007 57.532 127.644 57.2707 126.524 56.748C125.404 56.2067 124.489 55.4787 123.78 54.564C123.071 53.6307 122.548 52.5667 122.212 51.372C121.895 50.1587 121.736 48.8893 121.736 47.564V45.996C121.736 44.1107 122.053 42.412 122.688 40.9C123.323 39.388 124.293 38.1933 125.6 37.316C126.907 36.42 128.577 35.972 130.612 35.972C132.628 35.972 134.289 36.42 135.596 37.316C136.903 38.1933 137.864 39.388 138.48 40.9C139.115 42.412 139.432 44.1107 139.432 45.996V47.564C139.432 48.8893 139.264 50.1587 138.928 51.372C138.611 52.5667 138.097 53.6307 137.388 54.564C136.697 55.4787 135.792 56.2067 134.672 56.748C133.552 57.2707 132.199 57.532 130.612 57.532ZM130.612 53.892C132.273 53.892 133.496 53.3227 134.28 52.184C135.064 51.0267 135.456 49.2347 135.456 46.808C135.456 44.232 135.055 42.3933 134.252 41.292C133.449 40.172 132.236 39.612 130.612 39.612C128.969 39.612 127.737 40.172 126.916 41.292C126.113 42.3933 125.712 44.2133 125.712 46.752C125.712 49.1973 126.113 50.9987 126.916 52.156C127.719 53.3133 128.951 53.892 130.612 53.892ZM156.928 57L149.452 47.452H146.568L155.444 36.56H160.008L152 46.36L151.888 44.4L161.772 57H156.928ZM143.684 57V36.56H147.66V57H143.684ZM168.143 54.284V40.452H171.559V54.284H168.143ZM163.075 48.936V45.8H176.627V48.936H163.075Z" fill="black"/>
<path d="M60.85 82L57.308 71.78H58.722L61.9 81.104L61.228 80.768H62.908L62.194 81.104L65.12 71.78H66.492L63.202 82H60.85ZM71.0836 82.252C70.4302 82.252 69.8562 82.14 69.3616 81.916C68.8669 81.692 68.4469 81.398 68.1016 81.034C67.7656 80.6607 67.5089 80.2453 67.3316 79.788C67.1636 79.3307 67.0796 78.864 67.0796 78.388V78.136C67.0796 77.66 67.1682 77.1933 67.3456 76.736C67.5229 76.2693 67.7842 75.854 68.1296 75.49C68.4749 75.1167 68.8949 74.8227 69.3896 74.608C69.8842 74.384 70.4489 74.272 71.0836 74.272C71.7182 74.272 72.2829 74.384 72.7776 74.608C73.2722 74.8227 73.6922 75.1167 74.0376 75.49C74.3829 75.854 74.6442 76.2693 74.8216 76.736C74.9989 77.1933 75.0876 77.66 75.0876 78.136V78.388C75.0876 78.864 74.9989 79.3307 74.8216 79.788C74.6536 80.2453 74.3969 80.6607 74.0516 81.034C73.7156 81.398 73.3002 81.692 72.8056 81.916C72.3109 82.14 71.7369 82.252 71.0836 82.252ZM71.0836 81.048C71.6436 81.048 72.1196 80.9267 72.5116 80.684C72.9129 80.432 73.2162 80.096 73.4216 79.676C73.6362 79.256 73.7436 78.7847 73.7436 78.262C73.7436 77.73 73.6362 77.254 73.4216 76.834C73.2069 76.414 72.8989 76.0827 72.4976 75.84C72.1056 75.5973 71.6342 75.476 71.0836 75.476C70.5422 75.476 70.0709 75.5973 69.6696 75.84C69.2682 76.0827 68.9602 76.414 68.7456 76.834C68.5309 77.254 68.4236 77.73 68.4236 78.262C68.4236 78.7847 68.5262 79.256 68.7316 79.676C68.9462 80.096 69.2496 80.432 69.6416 80.684C70.0429 80.9267 70.5236 81.048 71.0836 81.048ZM79.6905 82.224C78.8038 82.224 78.1225 81.9347 77.6465 81.356C77.1705 80.7773 76.9325 79.942 76.9325 78.85V74.51H78.2765V79.116C78.2765 79.704 78.4352 80.166 78.7525 80.502C79.0698 80.8287 79.4992 80.992 80.0405 80.992C80.6005 80.992 81.0578 80.8147 81.4125 80.46C81.7672 80.096 81.9445 79.6013 81.9445 78.976V74.51H83.2885V82H82.2245V78.794H82.3925C82.3925 79.5313 82.2945 80.1567 82.0985 80.67C81.9025 81.174 81.6085 81.5613 81.2165 81.832C80.8338 82.0933 80.3438 82.224 79.7465 82.224H79.6905ZM89.0975 82.252C88.4535 82.252 87.8935 82.14 87.4175 81.916C86.9508 81.692 86.5635 81.3933 86.2555 81.02C85.9475 80.6373 85.7142 80.2173 85.5555 79.76C85.4062 79.3027 85.3315 78.8453 85.3315 78.388V78.136C85.3315 77.66 85.4062 77.1933 85.5555 76.736C85.7142 76.2787 85.9475 75.868 86.2555 75.504C86.5728 75.1307 86.9648 74.832 87.4315 74.608C87.8982 74.384 88.4442 74.272 89.0695 74.272C89.6948 74.272 90.2548 74.3887 90.7495 74.622C91.2535 74.8553 91.6548 75.1867 91.9535 75.616C92.2615 76.036 92.4342 76.5353 92.4715 77.114H91.1835C91.1182 76.6473 90.9035 76.26 90.5395 75.952C90.1755 75.6347 89.6855 75.476 89.0695 75.476C88.5375 75.476 88.0942 75.5973 87.7395 75.84C87.3848 76.0827 87.1188 76.414 86.9415 76.834C86.7642 77.254 86.6755 77.73 86.6755 78.262C86.6755 78.7753 86.7642 79.2467 86.9415 79.676C87.1188 80.096 87.3848 80.432 87.7395 80.684C88.1035 80.9267 88.5562 81.048 89.0975 81.048C89.5175 81.048 89.8815 80.9733 90.1895 80.824C90.4975 80.6747 90.7448 80.474 90.9315 80.222C91.1182 79.97 91.2302 79.6853 91.2675 79.368H92.5555C92.5275 79.956 92.3548 80.4647 92.0375 80.894C91.7295 81.3233 91.3188 81.6593 90.8055 81.902C90.3015 82.1353 89.7322 82.252 89.0975 82.252ZM94.3818 82V71.78H95.7258V77.884H95.3898C95.3898 77.1467 95.4831 76.512 95.6698 75.98C95.8658 75.4387 96.1644 75.0233 96.5658 74.734C96.9671 74.4447 97.4804 74.3 98.1058 74.3H98.1618C99.0578 74.3 99.7344 74.5987 100.192 75.196C100.649 75.784 100.878 76.6287 100.878 77.73V82H99.5338V77.45C99.5338 76.8433 99.3611 76.372 99.0158 76.036C98.6798 75.7 98.2411 75.532 97.6998 75.532C97.1024 75.532 96.6218 75.7327 96.2578 76.134C95.9031 76.526 95.7258 77.044 95.7258 77.688V82H94.3818ZM106.515 82.252C105.861 82.252 105.297 82.14 104.821 81.916C104.345 81.692 103.957 81.398 103.659 81.034C103.36 80.6607 103.136 80.2453 102.987 79.788C102.847 79.3307 102.777 78.864 102.777 78.388V78.136C102.777 77.6507 102.847 77.1793 102.987 76.722C103.136 76.2647 103.36 75.854 103.659 75.49C103.957 75.1167 104.335 74.8227 104.793 74.608C105.259 74.384 105.805 74.272 106.431 74.272C107.243 74.272 107.91 74.4493 108.433 74.804C108.965 75.1493 109.357 75.5973 109.609 76.148C109.87 76.6987 110.001 77.2867 110.001 77.912V78.514H103.365V77.506H109.021L108.713 78.052C108.713 77.52 108.629 77.0627 108.461 76.68C108.293 76.288 108.041 75.9847 107.705 75.77C107.369 75.5553 106.944 75.448 106.431 75.448C105.899 75.448 105.455 75.5693 105.101 75.812C104.755 76.0547 104.494 76.386 104.317 76.806C104.149 77.226 104.065 77.7113 104.065 78.262C104.065 78.794 104.149 79.2747 104.317 79.704C104.494 80.124 104.765 80.46 105.129 80.712C105.493 80.9547 105.955 81.076 106.515 81.076C107.103 81.076 107.579 80.9453 107.943 80.684C108.316 80.4227 108.54 80.1193 108.615 79.774H109.875C109.772 80.2873 109.567 80.7307 109.259 81.104C108.951 81.4773 108.563 81.762 108.097 81.958C107.63 82.154 107.103 82.252 106.515 82.252ZM111.909 82V74.524H112.973V77.604H112.917C112.917 76.512 113.155 75.714 113.631 75.21C114.116 74.6967 114.84 74.44 115.801 74.44H116.053V75.644H115.577C114.83 75.644 114.256 75.8447 113.855 76.246C113.454 76.638 113.253 77.2073 113.253 77.954V82H111.909ZM125.471 82.252C124.537 82.252 123.739 82.0887 123.077 81.762C122.423 81.4353 121.896 81.0107 121.495 80.488C121.093 79.9653 120.799 79.4007 120.613 78.794C120.426 78.178 120.333 77.5853 120.333 77.016V76.708C120.333 76.092 120.426 75.476 120.613 74.86C120.809 74.244 121.107 73.684 121.509 73.18C121.91 72.676 122.433 72.27 123.077 71.962C123.721 71.654 124.491 71.5 125.387 71.5C126.301 71.5 127.085 71.6587 127.739 71.976C128.392 72.2933 128.91 72.7367 129.293 73.306C129.675 73.8753 129.909 74.5473 129.993 75.322H128.593C128.518 74.7433 128.331 74.2673 128.033 73.894C127.734 73.5113 127.356 73.2267 126.899 73.04C126.451 72.8533 125.947 72.76 125.387 72.76C124.78 72.76 124.248 72.8673 123.791 73.082C123.333 73.2873 122.951 73.5813 122.643 73.964C122.344 74.3373 122.115 74.7713 121.957 75.266C121.807 75.7607 121.733 76.2973 121.733 76.876C121.733 77.4267 121.807 77.9493 121.957 78.444C122.115 78.9387 122.349 79.3773 122.657 79.76C122.974 80.1427 123.366 80.446 123.833 80.67C124.299 80.8847 124.845 80.992 125.471 80.992C126.348 80.992 127.085 80.7727 127.683 80.334C128.28 79.8953 128.644 79.2607 128.775 78.43H130.175C130.081 79.13 129.843 79.7693 129.461 80.348C129.087 80.9267 128.565 81.3887 127.893 81.734C127.23 82.0793 126.423 82.252 125.471 82.252ZM132.05 82V71.78H133.394V82H132.05ZM131.014 72.844V71.78H133.394V72.844H131.014ZM140.494 82V79.76H140.27V77.17C140.27 76.6567 140.134 76.2693 139.864 76.008C139.602 75.7467 139.215 75.616 138.702 75.616C138.412 75.616 138.114 75.6207 137.806 75.63C137.498 75.6393 137.204 75.6487 136.924 75.658C136.644 75.6673 136.401 75.6813 136.196 75.7V74.524C136.401 74.5053 136.616 74.4913 136.84 74.482C137.073 74.4633 137.311 74.454 137.554 74.454C137.796 74.4447 138.03 74.44 138.254 74.44C139.019 74.44 139.644 74.5333 140.13 74.72C140.615 74.8973 140.974 75.1913 141.208 75.602C141.441 76.0127 141.558 76.568 141.558 77.268V82H140.494ZM138.044 82.196C137.484 82.196 136.998 82.1027 136.588 81.916C136.186 81.72 135.874 81.44 135.65 81.076C135.435 80.712 135.328 80.2733 135.328 79.76C135.328 79.228 135.444 78.7847 135.678 78.43C135.92 78.0753 136.27 77.8093 136.728 77.632C137.185 77.4453 137.736 77.352 138.38 77.352H140.41V78.36H138.324C137.782 78.36 137.367 78.4907 137.078 78.752C136.788 79.0133 136.644 79.3493 136.644 79.76C136.644 80.1707 136.788 80.502 137.078 80.754C137.367 81.006 137.782 81.132 138.324 81.132C138.641 81.132 138.944 81.076 139.234 80.964C139.523 80.8427 139.761 80.6467 139.948 80.376C140.144 80.096 140.251 79.7133 140.27 79.228L140.634 79.76C140.587 80.292 140.456 80.74 140.242 81.104C140.036 81.4587 139.747 81.7293 139.374 81.916C139.01 82.1027 138.566 82.196 138.044 82.196ZM144.388 82V74.524H145.732V82H144.388ZM143.24 75.588V74.524H145.732V75.588H143.24ZM144.766 73.32C144.468 73.32 144.244 73.2407 144.094 73.082C143.954 72.9233 143.884 72.7227 143.884 72.48C143.884 72.2373 143.954 72.0367 144.094 71.878C144.244 71.7193 144.468 71.64 144.766 71.64C145.065 71.64 145.284 71.7193 145.424 71.878C145.574 72.0367 145.648 72.2373 145.648 72.48C145.648 72.7227 145.574 72.9233 145.424 73.082C145.284 73.2407 145.065 73.32 144.766 73.32ZM148.331 82V74.524H149.395V77.73H149.227C149.227 77.002 149.32 76.386 149.507 75.882C149.703 75.3687 149.992 74.9767 150.375 74.706C150.758 74.4353 151.243 74.3 151.831 74.3H151.887C152.475 74.3 152.96 74.4353 153.343 74.706C153.735 74.9767 154.024 75.3687 154.211 75.882C154.398 76.386 154.491 77.002 154.491 77.73H154.099C154.099 77.002 154.197 76.386 154.393 75.882C154.589 75.3687 154.878 74.9767 155.261 74.706C155.653 74.4353 156.143 74.3 156.731 74.3H156.787C157.375 74.3 157.865 74.4353 158.257 74.706C158.649 74.9767 158.938 75.3687 159.125 75.882C159.321 76.386 159.419 77.002 159.419 77.73V82H158.075V77.436C158.075 76.8293 157.926 76.3627 157.627 76.036C157.328 75.7 156.913 75.532 156.381 75.532C155.83 75.532 155.387 75.7093 155.051 76.064C154.715 76.4093 154.547 76.8947 154.547 77.52V82H153.203V77.436C153.203 76.8293 153.054 76.3627 152.755 76.036C152.456 75.7 152.041 75.532 151.509 75.532C150.958 75.532 150.515 75.7093 150.179 76.064C149.843 76.4093 149.675 76.8947 149.675 77.52V82H148.331ZM165.058 82.252C164.404 82.252 163.84 82.14 163.364 81.916C162.888 81.692 162.5 81.398 162.202 81.034C161.903 80.6607 161.679 80.2453 161.53 79.788C161.39 79.3307 161.32 78.864 161.32 78.388V78.136C161.32 77.6507 161.39 77.1793 161.53 76.722C161.679 76.2647 161.903 75.854 162.202 75.49C162.5 75.1167 162.878 74.8227 163.336 74.608C163.802 74.384 164.348 74.272 164.974 74.272C165.786 74.272 166.453 74.4493 166.976 74.804C167.508 75.1493 167.9 75.5973 168.152 76.148C168.413 76.6987 168.544 77.2867 168.544 77.912V78.514H161.908V77.506H167.564L167.256 78.052C167.256 77.52 167.172 77.0627 167.004 76.68C166.836 76.288 166.584 75.9847 166.248 75.77C165.912 75.5553 165.487 75.448 164.974 75.448C164.442 75.448 163.998 75.5693 163.644 75.812C163.298 76.0547 163.037 76.386 162.86 76.806C162.692 77.226 162.608 77.7113 162.608 78.262C162.608 78.794 162.692 79.2747 162.86 79.704C163.037 80.124 163.308 80.46 163.672 80.712C164.036 80.9547 164.498 81.076 165.058 81.076C165.646 81.076 166.122 80.9453 166.486 80.684C166.859 80.4227 167.083 80.1193 167.158 79.774H168.418C168.315 80.2873 168.11 80.7307 167.802 81.104C167.494 81.4773 167.106 81.762 166.64 81.958C166.173 82.154 165.646 82.252 165.058 82.252ZM173.574 82.252C173.042 82.252 172.552 82.154 172.104 81.958C171.656 81.762 171.264 81.4867 170.928 81.132C170.601 80.7773 170.345 80.3667 170.158 79.9C169.981 79.4333 169.892 78.9293 169.892 78.388V78.136C169.892 77.604 169.981 77.1047 170.158 76.638C170.335 76.1713 170.583 75.7607 170.9 75.406C171.227 75.0513 171.609 74.776 172.048 74.58C172.496 74.3747 172.991 74.272 173.532 74.272C174.101 74.272 174.619 74.3933 175.086 74.636C175.553 74.8693 175.935 75.238 176.234 75.742C176.533 76.246 176.701 76.8993 176.738 77.702L176.178 76.806V71.78H177.522V82H176.458V78.682H176.85C176.813 79.5313 176.635 80.222 176.318 80.754C176.001 81.2767 175.599 81.6593 175.114 81.902C174.638 82.1353 174.125 82.252 173.574 82.252ZM173.756 81.076C174.213 81.076 174.629 80.9733 175.002 80.768C175.375 80.5627 175.674 80.2687 175.898 79.886C176.122 79.494 176.234 79.0367 176.234 78.514V77.87C176.234 77.3567 176.117 76.9227 175.884 76.568C175.66 76.204 175.357 75.9287 174.974 75.742C174.601 75.546 174.19 75.448 173.742 75.448C173.247 75.448 172.809 75.5647 172.426 75.798C172.053 76.0313 171.759 76.358 171.544 76.778C171.339 77.198 171.236 77.6927 171.236 78.262C171.236 78.8313 171.343 79.3307 171.558 79.76C171.773 80.18 172.071 80.5067 172.454 80.74C172.837 80.964 173.271 81.076 173.756 81.076Z" fill="black" fill-opacity="0.5"/>
</g>
<defs>
<filter id="filter0_bd_40_5078" x="-8" y="-10" width="252" height="136" filterUnits="userSpaceOnUse" color-interpolation-filters="sRGB">
<feFlood flood-opacity="0" result="BackgroundImageFix"/>
<feGaussianBlur in="BackgroundImageFix" stdDeviation="6"/>
<feComposite in2="SourceAlpha" operator="in" result="effect1_backgroundBlur_40_5078"/>
<feColorMatrix in="SourceAlpha" type="matrix" values="0 0 0 0 0 0 0 0 0 0 0 0 0 0 0 0 0 0 127 0" result="hardAlpha"/>
<feOffset dy="2"/>
<feGaussianBlur stdDeviation="2"/>
<feComposite in2="hardAlpha" operator="out"/>
<feColorMatrix type="matrix" values="0 0 0 0 0 0 0 0 0 0 0 0 0 0 0 0 0 0 0.25 0"/>
<feBlend mode="normal" in2="effect1_backgroundBlur_40_5078" result="effect2_dropShadow_40_5078"/>
<feBlend mode="normal" in="SourceGraphic" in2="effect2_dropShadow_40_5078" result="shape"/>
</filter>
</defs>
</svg>
