<svg width="50" height="50" viewBox="0 0 50 50" fill="none" xmlns="http://www.w3.org/2000/svg">
<circle cx="25" cy="25" r="25" fill="#F1F9FF"/>
<path d="M29 27V20C29 19.434 28.566 19 28 19H21M29 27L34 32V15C34 14.434 33.566 14 33 14H16L21 19M29 27L24.293 31.707C24.1055 31.8946 23.8512 31.9999 23.586 32H17C16.7348 32 16.4804 31.8946 16.2929 31.7071C16.1054 31.5196 16 31.2652 16 31V24.414C16.0001 24.1488 16.1055 23.8945 16.293 23.707L21 19M29 27H22C21.7348 27 21.4804 26.8946 21.2929 26.7071C21.1054 26.5196 21 26.2652 21 26V19" stroke="#00CCFF" stroke-width="2" stroke-linecap="round" stroke-linejoin="round"/>
</svg>
