<svg width="50" height="50" viewBox="0 0 50 50" fill="none" xmlns="http://www.w3.org/2000/svg">
<circle cx="25" cy="25" r="25" fill="#F1F9FF"/>
<path d="M18 35V30L17 29V25C17 24.7348 17.1054 24.4804 17.2929 24.2929C17.4804 24.1054 17.7348 24 18 24H22C22.2652 24 22.5196 24.1054 22.7071 24.2929C22.8946 24.4804 23 24.7348 23 25V29L22 30V35M28 35V31H26L28 25C28 24.7348 28.1054 24.4804 28.2929 24.2929C28.4804 24.1054 28.7348 24 29 24H31C31.2652 24 31.5196 24.1054 31.7071 24.2929C31.8946 24.4804 32 24.7348 32 25L34 31H32V35M18 18C18 18.5304 18.2107 19.0391 18.5858 19.4142C18.9609 19.7893 19.4696 20 20 20C20.5304 20 21.0391 19.7893 21.4142 19.4142C21.7893 19.0391 22 18.5304 22 18C22 17.4696 21.7893 16.9609 21.4142 16.5858C21.0391 16.2107 20.5304 16 20 16C19.4696 16 18.9609 16.2107 18.5858 16.5858C18.2107 16.9609 18 17.4696 18 18ZM28 18C28 18.5304 28.2107 19.0391 28.5858 19.4142C28.9609 19.7893 29.4696 20 30 20C30.5304 20 31.0391 19.7893 31.4142 19.4142C31.7893 19.0391 32 18.5304 32 18C32 17.4696 31.7893 16.9609 31.4142 16.5858C31.0391 16.2107 30.5304 16 30 16C29.4696 16 28.9609 16.2107 28.5858 16.5858C28.2107 16.9609 28 17.4696 28 18Z" stroke="#00CCFF" stroke-width="2" stroke-linecap="round" stroke-linejoin="round"/>
</svg>
