<svg width="45" height="45" viewBox="0 0 45 45" fill="none" xmlns="http://www.w3.org/2000/svg">
<circle cx="22.5" cy="22.5" r="22.5" fill="#F1F9FF"/>
<path d="M21.1616 15.0806L21.6576 14.5856C22.0326 14.2106 22.5412 14 23.0716 14C23.6019 14 24.1105 14.2106 24.4856 14.5856L31.5566 21.6556C31.7425 21.8413 31.89 22.0619 31.9907 22.3047C32.0913 22.5475 32.1431 22.8077 32.1431 23.0706C32.1431 23.3334 32.0913 23.5937 31.9907 23.8365C31.89 24.0792 31.7425 24.2998 31.5566 24.4856L24.4866 31.5556C24.3008 31.7415 24.0802 31.889 23.8375 31.9897C23.5947 32.0903 23.3344 32.1421 23.0716 32.1421C22.8087 32.1421 22.5485 32.0903 22.3057 31.9897C22.0629 31.889 21.8423 31.7415 21.6566 31.5556L14.5866 24.4856C14.4006 24.2998 14.2531 24.0792 14.1525 23.8365C14.0518 23.5937 14 23.3334 14 23.0706C14 22.8077 14.0518 22.5475 14.1525 22.3047C14.2531 22.0619 14.4006 21.8413 14.5866 21.6556L18.1216 18.1206M18.1216 18.1206H14.1336M18.1216 18.1206L18.1216 22.1086" stroke="#00CCFF" stroke-width="2" stroke-linecap="round" stroke-linejoin="round"/>
</svg>
