<svg width="45" height="45" viewBox="0 0 45 45" fill="none" xmlns="http://www.w3.org/2000/svg">
<circle cx="22.5" cy="22.5" r="22.5" fill="#F1F9FF"/>
<path d="M23 27V27.01M23 24C23.4498 24.0014 23.8868 23.8511 24.2407 23.5734C24.5945 23.2958 24.8444 22.907 24.95 22.4698C25.0557 22.0327 25.0109 21.5726 24.8229 21.1641C24.6349 20.7555 24.3147 20.4222 23.914 20.218C23.5162 20.0142 23.0611 19.951 22.6228 20.0387C22.1845 20.1264 21.7888 20.3598 21.5 20.701M21.24 13.957L12.818 28.017C12.6445 28.3177 12.5527 28.6585 12.5518 29.0057C12.5508 29.3529 12.6408 29.6943 12.8127 29.9959C12.9846 30.2975 13.2324 30.5489 13.5316 30.7251C13.8308 30.9012 14.1709 30.996 14.518 31H31.363C31.7102 30.996 32.0502 30.9012 32.3494 30.7251C32.6486 30.5489 32.8965 30.2975 33.0684 29.9959C33.2403 29.6943 33.3302 29.3529 33.3293 29.0057C33.3283 28.6585 33.2365 28.3177 33.063 28.017L24.64 13.957C24.4627 13.6649 24.2131 13.4235 23.9153 13.256C23.6176 13.0885 23.2817 13.0005 22.94 13.0005C22.5984 13.0005 22.2625 13.0885 21.9647 13.256C21.667 13.4235 21.4174 13.6649 21.24 13.957Z" stroke="#00CCFF" stroke-width="2" stroke-linecap="round" stroke-linejoin="round"/>
</svg>
