<svg width="45" height="45" viewBox="0 0 45 45" fill="none" xmlns="http://www.w3.org/2000/svg">
<circle cx="22.5" cy="22.5" r="22.5" fill="#F1F9FF"/>
<path d="M19 22V18C19 16.9391 19.4214 15.9217 20.1716 15.1716C20.9217 14.4214 21.9391 14 23 14C24.0609 14 25.0783 14.4214 25.8284 15.1716C26.5786 15.9217 27 16.9391 27 18V22M16 24C16 23.4696 16.2107 22.9609 16.5858 22.5858C16.9609 22.2107 17.4696 22 18 22H28C28.5304 22 29.0391 22.2107 29.4142 22.5858C29.7893 22.9609 30 23.4696 30 24V30C30 30.5304 29.7893 31.0391 29.4142 31.4142C29.0391 31.7893 28.5304 32 28 32H18C17.4696 32 16.9609 31.7893 16.5858 31.4142C16.2107 31.0391 16 30.5304 16 30V24ZM22 27C22 27.2652 22.1054 27.5196 22.2929 27.7071C22.4804 27.8946 22.7348 28 23 28C23.2652 28 23.5196 27.8946 23.7071 27.7071C23.8946 27.5196 24 27.2652 24 27C24 26.7348 23.8946 26.4804 23.7071 26.2929C23.5196 26.1054 23.2652 26 23 26C22.7348 26 22.4804 26.1054 22.2929 26.2929C22.1054 26.4804 22 26.7348 22 27Z" stroke="#00CCFF" stroke-width="2" stroke-linecap="round" stroke-linejoin="round"/>
</svg>
