<svg width="50" height="50" viewBox="0 0 50 50" fill="none" xmlns="http://www.w3.org/2000/svg">
<circle cx="25" cy="25" r="25" fill="#F1F9FF"/>
<path d="M24 19C24 19.7956 24.5268 20.5587 25.4645 21.1213C26.4021 21.6839 27.6739 22 29 22C30.3261 22 31.5979 21.6839 32.5355 21.1213C33.4732 20.5587 34 19.7956 34 19M24 19C24 18.2044 24.5268 17.4413 25.4645 16.8787C26.4021 16.3161 27.6739 16 29 16C30.3261 16 31.5979 16.3161 32.5355 16.8787C33.4732 17.4413 34 18.2044 34 19M24 19V23M34 19V23M24 23C24 24.657 26.239 26 29 26C31.761 26 34 24.657 34 23M24 23V27M34 23V27M24 27C24 28.657 26.239 30 29 30C31.761 30 34 28.657 34 27M24 27V31C24 32.657 26.239 34 29 34C31.761 34 34 32.657 34 31V27M20 22H17.5C17.1022 22 16.7206 22.158 16.4393 22.4393C16.158 22.7206 16 23.1022 16 23.5C16 23.8978 16.158 24.2794 16.4393 24.5607C16.7206 24.842 17.1022 25 17.5 25H18.5C18.8978 25 19.2794 25.158 19.5607 25.4393C19.842 25.7206 20 26.1022 20 26.5C20 26.8978 19.842 27.2794 19.5607 27.5607C19.2794 27.842 18.8978 28 18.5 28H16M18 28V29M18 21V22" stroke="#00CCFF" stroke-width="2" stroke-linecap="round" stroke-linejoin="round"/>
</svg>
