<svg width="920" height="897" viewBox="0 0 920 897" fill="none" xmlns="http://www.w3.org/2000/svg">
<circle cx="459.953" cy="459.037" r="437.363" stroke="black" stroke-opacity="0.1" stroke-width="1.2"/>
<circle cx="459.953" cy="459.037" r="347.572" stroke="black" stroke-opacity="0.1" stroke-width="1.2"/>
<circle cx="459.953" cy="459.037" r="264.194" stroke="black" stroke-opacity="0.1" stroke-width="1.2"/>
<circle cx="459.953" cy="459.037" r="193.643" stroke="black" stroke-opacity="0.1" stroke-width="1.2"/>
<circle cx="459.953" cy="459.037" r="134.087" stroke="black" stroke-opacity="0.1" stroke-width="1.2"/>
<circle cx="459.953" cy="459.037" r="85.5267" stroke="black" stroke-opacity="0.1" stroke-width="1.2"/>
<circle cx="312.438" cy="145.682" r="12.8274" fill="#F1F9FF"/>
<circle cx="581.813" cy="311.522" r="12.8274" fill="#FEA421"/>
<circle cx="373.826" cy="446.209" r="12.8274" fill="#F1F9FF"/>
<circle cx="373.826" cy="285.867" r="12.8274" fill="#00CCFF"/>
<circle cx="724.747" cy="807.208" r="12.8274" fill="#00CCFF"/>
<circle cx="195.159" cy="471.864" r="12.8274" fill="#FEA421"/>
<circle cx="808.125" cy="194.243" r="12.8274" fill="#D9D9D9"/>
<circle cx="21.9898" cy="446.209" r="21.9898" fill="#00CCFF"/>
<circle cx="740.781" cy="670.23" r="21.5317" fill="#F1F9FF"/>
<circle cx="795.755" cy="351.378" r="21.5317" fill="#F1F9FF"/>
<circle cx="795.755" cy="351.378" r="16.9505" fill="#00CCFF"/>
<circle cx="898.374" cy="480.568" r="21.5317" fill="#FEA421"/>
<circle cx="475.987" cy="21.5317" r="21.5317" fill="#FEA421"/>
<circle cx="524.548" cy="572.193" r="21.5317" fill="#F1F9FF"/>
<circle cx="451.249" cy="648.24" r="16.9505" fill="#FEA421"/>
<circle cx="173.628" cy="785.677" r="21.5317" fill="#00CCFF"/>
</svg>
