<svg width="51" height="51" viewBox="0 0 51 51" fill="none" xmlns="http://www.w3.org/2000/svg">
<circle cx="25.5" cy="25.5" r="25" fill="#212529" stroke="#F9FBFC"/>
<path d="M31.3123 19.6875V19.7004M15.1665 20.3333C15.1665 18.963 15.7108 17.6489 16.6798 16.6799C17.6487 15.711 18.9629 15.1667 20.3332 15.1667H30.6665C32.0368 15.1667 33.3509 15.711 34.3199 16.6799C35.2888 17.6489 35.8332 18.963 35.8332 20.3333V30.6667C35.8332 32.0369 35.2888 33.3511 34.3199 34.32C33.3509 35.289 32.0368 35.8333 30.6665 35.8333H20.3332C18.9629 35.8333 17.6487 35.289 16.6798 34.32C15.7108 33.3511 15.1665 32.0369 15.1665 30.6667V20.3333ZM21.6248 25.5C21.6248 26.5277 22.0331 27.5133 22.7598 28.24C23.4865 28.9667 24.4721 29.375 25.4998 29.375C26.5276 29.375 27.5132 28.9667 28.2399 28.24C28.9666 27.5133 29.3748 26.5277 29.3748 25.5C29.3748 24.4723 28.9666 23.4867 28.2399 22.76C27.5132 22.0332 26.5276 21.625 25.4998 21.625C24.4721 21.625 23.4865 22.0332 22.7598 22.76C22.0331 23.4867 21.6248 24.4723 21.6248 25.5Z" stroke="white" stroke-width="2" stroke-linecap="round" stroke-linejoin="round"/>
</svg>
