<svg width="415" height="438" viewBox="0 0 415 438" fill="none" xmlns="http://www.w3.org/2000/svg">
<g style="mix-blend-mode:multiply">
<path fill-rule="evenodd" clip-rule="evenodd" d="M296.796 436.564C254.974 436.564 221.082 402.7 221.082 360.925V223.401C221.082 181.627 254.974 147.762 296.796 147.762C338.618 147.762 372.511 181.627 372.511 223.401V360.925C372.511 402.7 338.618 436.564 296.796 436.564ZM331.212 360.925V223.401C331.212 204.413 315.808 189.02 296.796 189.02C277.785 189.02 262.38 204.413 262.38 223.401V360.925C262.38 379.913 277.785 395.307 296.796 395.307C315.808 395.307 331.212 379.913 331.212 360.925Z" fill="#00CCFF"/>
</g>
<path d="M317.831 168.42C317.831 126.706 351.777 92.8901 393.664 92.8901C405.08 92.8901 414.346 83.6671 414.346 72.2908C414.346 60.9146 405.08 51.6917 393.664 51.6917C328.944 51.6917 276.468 103.953 276.468 168.42C276.468 179.797 285.734 189.02 297.15 189.02C308.566 189.02 317.831 179.797 317.831 168.42Z" fill="#FBFBFB"/>
<path fill-rule="evenodd" clip-rule="evenodd" d="M112.37 326.401C93.3632 326.401 77.9546 341.814 77.9546 360.827C77.9546 379.84 93.3632 395.253 112.37 395.253C131.378 395.253 146.786 379.84 146.786 360.827C146.786 341.814 131.378 326.401 112.37 326.401ZM36.6558 360.827C36.6558 318.998 70.5538 285.09 112.37 285.09C154.187 285.09 188.085 318.998 188.085 360.827C188.085 402.656 154.187 436.564 112.37 436.564C70.5538 436.564 36.6558 402.656 36.6558 360.827Z" fill="#FFC735"/>
<path d="M-300.367 227.33C-288.972 227.33 -279.734 236.59 -279.734 248.011C-279.734 267.048 -264.338 282.48 -245.346 282.48H-107.794C-88.8022 282.48 -73.4059 267.048 -73.4059 248.011C-73.4059 236.59 -64.168 227.33 -52.7731 227.33C-41.3783 227.33 -32.1403 236.59 -32.1403 248.011C-32.1403 273.394 -44.5818 295.864 -63.6851 309.628C-58.8378 327.418 -42.5063 340.388 -22.5117 340.388H57.2686C68.6635 340.388 77.9016 349.648 77.9016 361.069C77.9016 372.491 68.6635 381.75 57.2686 381.75H-22.5117C-59.8309 381.75 -91.8861 357.775 -102.604 323.668C-104.319 323.784 -106.05 323.843 -107.794 323.843H-245.346C-287.129 323.843 -321 289.892 -321 248.011C-321 236.59 -311.762 227.33 -300.367 227.33Z" fill="#FBFBFB"/>
<path fill-rule="evenodd" clip-rule="evenodd" d="M-32.2289 247.664C-32.2289 266.677 -16.8203 282.09 2.18689 282.09C21.194 282.09 36.6027 266.677 36.6027 247.664C36.6027 228.652 21.194 213.238 2.18689 213.238C-9.21712 213.238 -18.4626 203.99 -18.4626 192.583C-18.4626 181.176 -9.21712 171.927 2.18689 171.927C44.0034 171.927 77.9016 205.836 77.9016 247.664C77.9016 289.493 44.0034 323.401 2.18689 323.401C-39.6296 323.401 -73.5278 289.493 -73.5278 247.664C-73.5278 236.257 -64.2823 227.009 -52.8783 227.009C-41.4743 227.009 -32.2289 236.257 -32.2289 247.664Z" fill="#463C74"/>
<path fill-rule="evenodd" clip-rule="evenodd" d="M77.9011 361.122C77.9011 372.514 68.6677 381.75 57.2784 381.75C45.8892 381.75 36.6558 372.514 36.6558 361.122C36.6558 349.729 45.8892 340.493 57.2784 340.493C68.6677 340.493 77.9011 349.729 77.9011 361.122Z" fill="#00CCFF"/>
<path fill-rule="evenodd" clip-rule="evenodd" d="M106.773 232.635C106.773 180.227 64.3014 137.743 11.9088 137.743C0.519593 137.743 -8.71387 128.507 -8.71387 117.114C-8.71387 105.721 0.519593 96.4854 11.9088 96.4854C87.0798 96.4854 148.019 157.442 148.019 232.635C148.019 244.027 138.785 253.263 127.396 253.263C116.007 253.263 106.773 244.027 106.773 232.635Z" fill="#00CCFF"/>
<path fill-rule="evenodd" clip-rule="evenodd" d="M28.4069 31.6523C101.3 31.6523 160.392 -27.4572 160.392 -100.371C160.392 -111.764 169.625 -121 181.015 -121C192.404 -121 201.637 -111.764 201.637 -100.371C201.637 -4.67075 124.08 72.9096 28.4069 72.9096C17.0177 72.9096 7.78418 63.6735 7.78418 52.2809C7.78418 40.8884 17.0177 31.6523 28.4069 31.6523Z" fill="#00CCFF"/>
<path fill-rule="evenodd" clip-rule="evenodd" d="M391.922 -8.35883C293.047 -8.35883 212.9 71.8153 212.9 170.715C212.9 182.126 203.652 191.377 192.244 191.377C180.836 191.377 171.587 182.126 171.587 170.715C171.587 48.9916 270.228 -49.6836 391.922 -49.6836C403.324 -49.6836 412.578 -40.4323 412.578 -29.0212C412.578 -17.61 403.324 -8.35883 391.922 -8.35883Z" fill="#FFC735"/>
</svg>
