<svg width="51" height="51" viewBox="0 0 51 51" fill="none" xmlns="http://www.w3.org/2000/svg">
<circle cx="25.5" cy="25.5" r="25" fill="#212529" stroke="#F9FBFC"/>
<path d="M20.3332 24.2083V30.6667M20.3332 20.3333V20.3462M25.4998 30.6667V24.2083M30.6665 30.6667V26.7917C30.6665 26.1065 30.3943 25.4494 29.9099 24.965C29.4254 24.4805 28.7683 24.2083 28.0832 24.2083C27.398 24.2083 26.7409 24.4805 26.2565 24.965C25.772 25.4494 25.4998 26.1065 25.4998 26.7917M15.1665 17.75C15.1665 17.0648 15.4387 16.4078 15.9231 15.9233C16.4076 15.4388 17.0647 15.1667 17.7498 15.1667H33.2498C33.935 15.1667 34.5921 15.4388 35.0765 15.9233C35.561 16.4078 35.8332 17.0648 35.8332 17.75V33.25C35.8332 33.9351 35.561 34.5922 35.0765 35.0767C34.5921 35.5612 33.935 35.8333 33.2498 35.8333H17.7498C17.0647 35.8333 16.4076 35.5612 15.9231 35.0767C15.4387 34.5922 15.1665 33.9351 15.1665 33.25V17.75Z" stroke="white" stroke-width="2" stroke-linecap="round" stroke-linejoin="round"/>
</svg>
