<svg width="50" height="50" viewBox="0 0 50 50" fill="none" xmlns="http://www.w3.org/2000/svg">
<circle cx="25" cy="25" r="25" fill="#00CCFF"/>
<path d="M25 21C25.2761 21 25.5 20.7761 25.5 20.5C25.5 20.2239 25.2761 20 25 20C24.7239 20 24.5 20.2239 24.5 20.5C24.5 20.7761 24.7239 21 25 21Z" fill="white"/>
<path d="M25 30C25.2761 30 25.5 29.7761 25.5 29.5C25.5 29.2239 25.2761 29 25 29C24.7239 29 24.5 29.2239 24.5 29.5C24.5 29.7761 24.7239 30 25 30Z" fill="white"/>
<path d="M25 34C23.8181 34 22.6478 33.7672 21.5558 33.3149C20.4639 32.8626 19.4718 32.1997 18.636 31.364C17.8003 30.5282 17.1374 29.5361 16.6851 28.4442C16.2328 27.3522 16 26.1819 16 25C16 23.8181 16.2328 22.6478 16.6851 21.5558C17.1374 20.4639 17.8003 19.4718 18.636 18.636C19.4718 17.8003 20.4639 17.1374 21.5558 16.6851C22.6478 16.2328 23.8181 16 25 16M25 34C26.1819 34 27.3522 33.7672 28.4442 33.3149C29.5361 32.8626 30.5282 32.1997 31.364 31.364C32.1997 30.5282 32.8626 29.5361 33.3149 28.4442C33.7672 27.3522 34 26.1819 34 25C34 23.8181 33.7672 22.6478 33.3149 21.5558C32.8626 20.4639 32.1997 19.4718 31.364 18.636C30.5282 17.8003 29.5361 17.1374 28.4442 16.6851C27.3522 16.2328 26.1819 16 25 16M25 34C26.1935 34 27.3381 33.5259 28.182 32.682C29.0259 31.8381 29.5 30.6935 29.5 29.5C29.5 28.3065 29.0259 27.1619 28.182 26.318C27.3381 25.4741 26.1935 25 25 25C23.8065 25 22.6619 24.5259 21.818 23.682C20.9741 22.8381 20.5 21.6935 20.5 20.5C20.5 19.3065 20.9741 18.1619 21.818 17.318C22.6619 16.4741 23.8065 16 25 16M25.5 20.5C25.5 20.7761 25.2761 21 25 21C24.7239 21 24.5 20.7761 24.5 20.5C24.5 20.2239 24.7239 20 25 20C25.2761 20 25.5 20.2239 25.5 20.5ZM25.5 29.5C25.5 29.7761 25.2761 30 25 30C24.7239 30 24.5 29.7761 24.5 29.5C24.5 29.2239 24.7239 29 25 29C25.2761 29 25.5 29.2239 25.5 29.5Z" stroke="white" stroke-width="2" stroke-linecap="round" stroke-linejoin="round"/>
</svg>
