<svg width="449" height="425" viewBox="0 0 449 425" fill="none" xmlns="http://www.w3.org/2000/svg">
<path fill-rule="evenodd" clip-rule="evenodd" d="M433.37 447.401C414.363 447.401 398.955 462.814 398.955 481.827C398.955 500.84 414.363 516.253 433.37 516.253C452.378 516.253 467.786 500.84 467.786 481.827C467.786 462.814 452.378 447.401 433.37 447.401ZM357.656 481.827C357.656 439.998 391.554 406.09 433.37 406.09C475.187 406.09 509.085 439.998 509.085 481.827C509.085 523.656 475.187 557.564 433.37 557.564C391.554 557.564 357.656 523.656 357.656 481.827Z" fill="#FFC735"/>
<path d="M20.6328 348.33C32.0276 348.33 41.2657 357.59 41.2657 369.011C41.2657 388.048 56.6619 403.48 75.6537 403.48H213.206C232.198 403.48 247.594 388.048 247.594 369.011C247.594 357.59 256.832 348.33 268.227 348.33C279.622 348.33 288.86 357.59 288.86 369.011C288.86 394.394 276.418 416.864 257.315 430.628C262.162 448.418 278.494 461.388 298.488 461.388H378.269C389.663 461.388 398.902 470.648 398.902 482.069C398.902 493.491 389.663 502.75 378.269 502.75H298.488C261.169 502.75 229.114 478.775 218.396 444.668C216.681 444.784 214.95 444.843 213.206 444.843H75.6537C33.8709 444.843 0 410.892 0 369.011C0 357.59 9.23798 348.33 20.6328 348.33Z" fill="#FBFBFB"/>
<path fill-rule="evenodd" clip-rule="evenodd" d="M20.6227 389.588C32.0119 389.588 41.2454 380.338 41.2454 368.929C41.2454 349.913 56.634 334.498 75.6165 334.498H213.101C232.083 334.498 247.472 349.913 247.472 368.929C247.472 380.338 256.706 389.588 268.095 389.588C279.484 389.588 288.717 380.338 288.717 368.929C288.717 347.223 279.604 327.65 265 313.839C279.604 300.028 288.717 280.454 288.717 258.749V195.395C288.717 153.56 254.863 119.646 213.101 119.646C201.712 119.646 192.478 128.896 192.478 140.305C192.478 151.714 201.712 160.964 213.101 160.964C232.083 160.964 247.472 176.38 247.472 195.395V258.749C247.472 277.764 232.083 293.18 213.101 293.18H75.6179C33.8556 293.18 0 327.093 0 368.929C0 380.338 9.23346 389.588 20.6227 389.588Z" fill="#00CCFF"/>
<path fill-rule="evenodd" clip-rule="evenodd" d="M288.771 368.664C288.771 387.677 304.18 403.09 323.187 403.09C342.194 403.09 357.603 387.677 357.603 368.664C357.603 349.652 342.194 334.238 323.187 334.238C311.783 334.238 302.537 324.99 302.537 313.583C302.537 302.176 311.783 292.927 323.187 292.927C365.003 292.927 398.902 326.836 398.902 368.664C398.902 410.493 365.003 444.401 323.187 444.401C281.37 444.401 247.472 410.493 247.472 368.664C247.472 357.257 256.718 348.009 268.122 348.009C279.526 348.009 288.771 357.257 288.771 368.664Z" fill="#463C74"/>
<path fill-rule="evenodd" clip-rule="evenodd" d="M288.718 368.369C288.718 379.762 279.484 388.998 268.095 388.998C256.706 388.998 247.472 379.762 247.472 368.369C247.472 356.977 256.706 347.741 268.095 347.741C279.484 347.741 288.718 356.977 288.718 368.369Z" fill="#00CCFF"/>
<path fill-rule="evenodd" clip-rule="evenodd" d="M172.094 389.641C153.15 389.641 137.793 405.054 137.793 424.067C137.793 443.079 153.15 458.493 172.094 458.493C183.46 458.493 192.675 467.741 192.675 479.148C192.675 490.555 183.46 499.804 172.094 499.804C130.417 499.804 96.6318 465.895 96.6318 424.067C96.6318 382.238 130.417 348.33 172.094 348.33C183.46 348.33 192.675 357.578 192.675 368.986C192.675 380.393 183.46 389.641 172.094 389.641Z" fill="#FFC735"/>
<path fill-rule="evenodd" clip-rule="evenodd" d="M427.773 353.635C427.773 301.227 385.301 258.743 332.909 258.743C321.52 258.743 312.286 249.507 312.286 238.114C312.286 226.721 321.52 217.485 332.909 217.485C408.08 217.485 469.019 278.442 469.019 353.635C469.019 365.027 459.785 374.263 448.396 374.263C437.007 374.263 427.773 365.027 427.773 353.635Z" fill="#00CCFF"/>
<path fill-rule="evenodd" clip-rule="evenodd" d="M192.675 368.959C192.675 380.351 183.441 389.587 172.052 389.587C160.663 389.587 151.429 380.351 151.429 368.959C151.429 357.566 160.663 348.33 172.052 348.33C183.441 348.33 192.675 357.566 192.675 368.959Z" fill="#00CCFF"/>
<path fill-rule="evenodd" clip-rule="evenodd" d="M154.375 254.617C154.375 266.009 145.142 275.246 133.753 275.246C122.363 275.246 113.13 266.009 113.13 254.617C113.13 243.224 122.363 233.988 133.753 233.988C145.142 233.988 154.375 243.224 154.375 254.617Z" fill="#463C74"/>
<path fill-rule="evenodd" clip-rule="evenodd" d="M209.173 254.617C209.173 266.009 199.939 275.246 188.55 275.246C177.161 275.246 167.927 266.009 167.927 254.617C167.927 243.224 177.161 233.988 188.55 233.988C199.939 233.988 209.173 243.224 209.173 254.617Z" fill="#463C74"/>
<path fill-rule="evenodd" clip-rule="evenodd" d="M349.407 152.652C422.3 152.652 481.392 93.5428 481.392 20.6287C481.392 9.23613 490.625 0 502.015 0C513.404 0 522.637 9.23613 522.637 20.6287C522.637 116.329 445.08 193.91 349.407 193.91C338.018 193.91 328.784 184.673 328.784 173.281C328.784 161.888 338.018 152.652 349.407 152.652Z" fill="#00CCFF"/>
</svg>
