<svg width="505" height="293" viewBox="0 0 505 293" fill="none" xmlns="http://www.w3.org/2000/svg">
<circle cx="51.5" cy="64.5" r="51.5" fill="#FEA421"/>
<path d="M38.2502 75.5417C39.4215 75.5417 40.5449 76.007 41.3732 76.8353C42.2015 77.6636 42.6668 78.787 42.6668 79.9583C42.6668 81.1297 42.2015 82.2531 41.3732 83.0814C40.5449 83.9097 39.4215 84.375 38.2502 84.375C37.0788 84.375 35.9554 83.9097 35.1271 83.0814C34.2988 82.2531 33.8335 81.1297 33.8335 79.9583C33.8335 78.787 34.2988 77.6636 35.1271 76.8353C35.9554 76.007 37.0788 75.5417 38.2502 75.5417ZM38.2502 75.5417H62.5418M38.2502 75.5417V44.625H33.8335M62.5418 75.5417C63.7132 75.5417 64.8366 76.007 65.6649 76.8353C66.4932 77.6636 66.9585 78.787 66.9585 79.9583C66.9585 81.1297 66.4932 82.2531 65.6649 83.0814C64.8366 83.9097 63.7132 84.375 62.5418 84.375C61.3704 84.375 60.2471 83.9097 59.4188 83.0814C58.5905 82.2531 58.1252 81.1297 58.1252 79.9583C58.1252 78.787 58.5905 77.6636 59.4188 76.8353C60.2471 76.007 61.3704 75.5417 62.5418 75.5417ZM38.2502 49.0417L69.1668 51.25L66.9585 66.7083H38.2502" stroke="white" stroke-width="4" stroke-linecap="round" stroke-linejoin="round"/>
<circle cx="326" cy="147" r="28" fill="#FEA421"/>
<path d="M315.5 154.5C315.5 155.296 315.816 156.059 316.379 156.621C316.941 157.184 317.704 157.5 318.5 157.5C319.296 157.5 320.059 157.184 320.621 156.621C321.184 156.059 321.5 155.296 321.5 154.5M315.5 154.5C315.5 153.704 315.816 152.941 316.379 152.379C316.941 151.816 317.704 151.5 318.5 151.5C319.296 151.5 320.059 151.816 320.621 152.379C321.184 152.941 321.5 153.704 321.5 154.5M315.5 154.5H312.5V148.5M321.5 154.5H330.5M330.5 154.5C330.5 155.296 330.816 156.059 331.379 156.621C331.941 157.184 332.704 157.5 333.5 157.5C334.296 157.5 335.059 157.184 335.621 156.621C336.184 156.059 336.5 155.296 336.5 154.5M330.5 154.5C330.5 153.704 330.816 152.941 331.379 152.379C331.941 151.816 332.704 151.5 333.5 151.5C334.296 151.5 335.059 151.816 335.621 152.379C336.184 152.941 336.5 153.704 336.5 154.5M336.5 154.5H339.5V145.5M311 136.5H327.5V154.5M339.5 145.5H327.5M339.5 145.5L335 138H327.5M312.5 142.5H318.5" stroke="white" stroke-width="2.5" stroke-linecap="round" stroke-linejoin="round"/>
<circle cx="153" cy="153" r="34" fill="#00CCFF"/>
<path d="M153.5 135.875C155.815 135.875 158.106 136.331 160.245 137.217C162.383 138.102 164.326 139.401 165.963 141.037C167.599 142.674 168.898 144.617 169.783 146.755C170.669 148.894 171.125 151.185 171.125 153.5C171.125 155.815 170.669 158.106 169.783 160.245C168.898 162.383 167.599 164.326 165.963 165.963C164.326 167.599 162.383 168.898 160.245 169.783C158.106 170.669 155.815 171.125 153.5 171.125C151.185 171.125 148.894 170.669 146.755 169.783C144.617 168.898 142.674 167.599 141.037 165.963C139.401 164.326 138.102 162.383 137.217 160.245C136.331 158.106 135.875 155.815 135.875 153.5C135.875 151.185 136.331 148.894 137.217 146.755C138.102 144.617 139.401 142.674 141.037 141.037C142.674 139.401 144.617 138.102 146.755 137.217C148.894 136.331 151.185 135.875 153.5 135.875ZM153.5 135.875V153.5M153.5 153.5L167.208 163.292M153.5 153.5L139.792 163.292" stroke="white" stroke-width="3" stroke-linecap="round" stroke-linejoin="round"/>
<circle cx="317" cy="37" r="37" fill="#00CCFF"/>
<path d="M312 25.3333H308.667C307.783 25.3333 306.935 25.6845 306.31 26.3096C305.685 26.9348 305.333 27.7826 305.333 28.6667V48.6667C305.333 49.5507 305.685 50.3986 306.31 51.0237C306.935 51.6488 307.783 52 308.667 52H325.333C326.218 52 327.065 51.6488 327.691 51.0237C328.316 50.3986 328.667 49.5507 328.667 48.6667V28.6667C328.667 27.7826 328.316 26.9348 327.691 26.3096C327.065 25.6845 326.218 25.3333 325.333 25.3333H322M312 25.3333C312 24.4493 312.351 23.6014 312.976 22.9763C313.602 22.3512 314.449 22 315.333 22H318.667C319.551 22 320.399 22.3512 321.024 22.9763C321.649 23.6014 322 24.4493 322 25.3333M312 25.3333C312 26.2174 312.351 27.0652 312.976 27.6904C313.602 28.3155 314.449 28.6667 315.333 28.6667H318.667C319.551 28.6667 320.399 28.3155 321.024 27.6904C321.649 27.0652 322 26.2174 322 25.3333M312 45.3333V37M317 45.3333V43.6667M322 45.3333V40.3333" stroke="white" stroke-width="2.5" stroke-linecap="round" stroke-linejoin="round"/>
<circle cx="198" cy="65" r="28" fill="#FEA421"/>
<path d="M200.084 68.375L205.341 73.9085C205.783 74.3743 206.365 74.6841 206.999 74.7912C207.633 74.8983 208.284 74.7971 208.855 74.5026C209.426 74.2082 209.887 73.7365 210.167 73.1582C210.448 72.5799 210.533 71.9263 210.41 71.2954L208.344 60.6624M192.334 60.6249V63.2083M191.042 61.9166H193.625M200.084 61.9166H202.667M202.021 55.4583C203.734 55.4583 205.377 56.1387 206.588 57.3499C207.799 58.561 208.479 60.2037 208.479 61.9166C208.479 63.6294 207.799 65.2721 206.588 66.4833C205.377 67.6945 203.734 68.3749 202.021 68.3749H194.917L189.731 73.8348C189.287 74.3018 188.704 74.6121 188.069 74.7187C187.433 74.8253 186.781 74.7226 186.209 74.426C185.637 74.1294 185.177 73.655 184.898 73.0742C184.62 72.4935 184.537 71.8379 184.664 71.2063L186.774 60.6495C187.067 59.1853 187.858 57.8679 189.013 56.9214C190.168 55.975 191.615 55.4579 193.109 55.4583H202.021Z" stroke="white" stroke-width="3" stroke-linecap="round" stroke-linejoin="round"/>
<circle cx="246.5" cy="241.5" r="51.5" fill="#00CCFF"/>
<g clip-path="url(#clip0_40_4898)">
<path d="M250.418 231.747L257.253 224.911C258.16 224.005 259.389 223.496 260.671 223.496C261.953 223.496 263.182 224.005 264.089 224.911C264.995 225.818 265.504 227.047 265.504 228.329C265.504 229.611 264.995 230.84 264.089 231.747L257.253 238.582L262.38 257.379L257.253 262.506L248.709 247.126L241.874 253.962L241.874 260.797L236.747 265.924L233.329 255.671L223.076 252.253L228.203 247.126L235.038 247.126L241.874 240.291L226.494 231.747L231.621 226.62L250.418 231.747Z" stroke="white" stroke-width="3" stroke-linecap="round" stroke-linejoin="round"/>
</g>
<circle cx="41" cy="249" r="28" fill="#FEA421"/>
<path d="M35 243V240.25C35 239.521 35.2897 238.821 35.8055 238.305C36.3212 237.79 37.0207 237.5 37.75 237.5H43.25C43.9793 237.5 44.6788 237.79 45.1945 238.305C45.7103 238.821 46 239.521 46 240.25V243M37.75 251.25H43.25M40.5 248.5V254M29.5 245.75C29.5 245.021 29.7897 244.321 30.3055 243.805C30.8212 243.29 31.5207 243 32.25 243H48.75C49.4793 243 50.1788 243.29 50.6945 243.805C51.2103 244.321 51.5 245.021 51.5 245.75V256.75C51.5 257.479 51.2103 258.179 50.6945 258.695C50.1788 259.21 49.4793 259.5 48.75 259.5H32.25C31.5207 259.5 30.8212 259.21 30.3055 258.695C29.7897 258.179 29.5 257.479 29.5 256.75V245.75Z" stroke="white" stroke-width="3" stroke-linecap="round" stroke-linejoin="round"/>
<circle cx="405.5" cy="240.5" r="36.5" fill="#00CCFF"/>
<path d="M392.958 240.5H389.375L405.5 224.375L421.625 240.5H418.042" stroke="white" stroke-width="2.5" stroke-linecap="round" stroke-linejoin="round"/>
<path d="M392.958 240.5V253.042C392.958 253.992 393.336 254.903 394.008 255.575C394.68 256.247 395.591 256.625 396.542 256.625H414.458C415.409 256.625 416.32 256.247 416.992 255.575C417.664 254.903 418.042 253.992 418.042 253.042V240.5" stroke="white" stroke-width="2.5" stroke-linecap="round" stroke-linejoin="round"/>
<path d="M401.917 240.5H409.083V247.667H401.917V240.5Z" stroke="white" stroke-width="2.5" stroke-linecap="round" stroke-linejoin="round"/>
<circle cx="468.5" cy="82.5" r="36.5" fill="#00CCFF"/>
<path d="M453.5 67.5H483.5M453.5 97.5H483.5M457.25 80.625C457.25 79.6304 457.645 78.6766 458.348 77.9734C459.052 77.2701 460.005 76.875 461 76.875H476C476.995 76.875 477.948 77.2701 478.652 77.9734C479.355 78.6766 479.75 79.6304 479.75 80.625V84.375C479.75 85.3696 479.355 86.3234 478.652 87.0266C477.948 87.7299 476.995 88.125 476 88.125H461C460.005 88.125 459.052 87.7299 458.348 87.0266C457.645 86.3234 457.25 85.3696 457.25 84.375V80.625Z" stroke="white" stroke-width="3" stroke-linecap="round" stroke-linejoin="round"/>
<defs>
<clipPath id="clip0_40_4898">
<rect width="58" height="58" fill="white" transform="translate(205.988 242) rotate(-45)"/>
</clipPath>
</defs>
</svg>
