<svg width="45" height="46" viewBox="0 0 45 46" fill="none" xmlns="http://www.w3.org/2000/svg">
<path d="M31.875 6.7623C34.703 8.39515 37.0555 10.7383 38.6997 13.5597C40.3438 16.3812 41.2225 19.5831 41.2489 22.8486C41.2753 26.114 40.4484 29.3297 38.85 32.1774C37.2517 35.025 34.9373 37.4058 32.1361 39.0841C29.3348 40.7625 26.1438 41.6801 22.8789 41.7462C19.6141 41.8122 16.3885 41.0245 13.5217 39.4609C10.6548 37.8973 8.24601 35.612 6.53375 32.8314C4.82149 30.0508 3.86514 26.8711 3.75938 23.6073L3.75 22.9998L3.75938 22.3923C3.86438 19.1542 4.80665 15.9985 6.49432 13.2329C8.182 10.4673 10.5575 8.18627 13.3892 6.61208C16.2209 5.03789 19.4121 4.22429 22.6519 4.25062C25.8916 4.27695 29.0693 5.14229 31.875 6.7623ZM29.4506 17.9242C29.1278 17.6013 28.6982 17.4074 28.2425 17.3788C27.7869 17.3501 27.3364 17.4887 26.9756 17.7685L26.7994 17.9242L20.625 24.0967L18.2006 21.6742L18.0244 21.5185C17.6636 21.2389 17.2132 21.1005 16.7576 21.1292C16.3021 21.158 15.8726 21.3519 15.5499 21.6747C15.2271 21.9974 15.0332 22.4269 15.0044 22.8824C14.9757 23.338 15.1141 23.7884 15.3938 24.1492L15.5494 24.3254L19.2994 28.0754L19.4756 28.231C19.8044 28.4862 20.2088 28.6246 20.625 28.6246C21.0412 28.6246 21.4456 28.4862 21.7744 28.231L21.9506 28.0754L29.4506 20.5754L29.6063 20.3992C29.8861 20.0384 30.0247 19.5879 29.996 19.1323C29.9674 18.6766 29.7735 18.247 29.4506 17.9242Z" fill="#00CCFF"/>
</svg>
