<svg width="50" height="50" viewBox="0 0 50 50" fill="none" xmlns="http://www.w3.org/2000/svg">
<circle cx="25" cy="25" r="25" fill="#00CCFF"/>
<path d="M21 34V33C21 32.4696 21.2107 31.9609 21.5858 31.5858C21.9609 31.2107 22.4696 31 23 31H27C27.5304 31 28.0391 31.2107 28.4142 31.5858C28.7893 31.9609 29 32.4696 29 33V34M30 23H32C32.5304 23 33.0391 23.2107 33.4142 23.5858C33.7893 23.9609 34 24.4696 34 25V26M16 26V25C16 24.4696 16.2107 23.9609 16.5858 23.5858C16.9609 23.2107 17.4696 23 18 23H20M23 26C23 26.5304 23.2107 27.0391 23.5858 27.4142C23.9609 27.7893 24.4696 28 25 28C25.5304 28 26.0391 27.7893 26.4142 27.4142C26.7893 27.0391 27 26.5304 27 26C27 25.4696 26.7893 24.9609 26.4142 24.5858C26.0391 24.2107 25.5304 24 25 24C24.4696 24 23.9609 24.2107 23.5858 24.5858C23.2107 24.9609 23 25.4696 23 26ZM28 18C28 18.5304 28.2107 19.0391 28.5858 19.4142C28.9609 19.7893 29.4696 20 30 20C30.5304 20 31.0391 19.7893 31.4142 19.4142C31.7893 19.0391 32 18.5304 32 18C32 17.4696 31.7893 16.9609 31.4142 16.5858C31.0391 16.2107 30.5304 16 30 16C29.4696 16 28.9609 16.2107 28.5858 16.5858C28.2107 16.9609 28 17.4696 28 18ZM18 18C18 18.5304 18.2107 19.0391 18.5858 19.4142C18.9609 19.7893 19.4696 20 20 20C20.5304 20 21.0391 19.7893 21.4142 19.4142C21.7893 19.0391 22 18.5304 22 18C22 17.4696 21.7893 16.9609 21.4142 16.5858C21.0391 16.2107 20.5304 16 20 16C19.4696 16 18.9609 16.2107 18.5858 16.5858C18.2107 16.9609 18 17.4696 18 18Z" stroke="white" stroke-width="2" stroke-linecap="round" stroke-linejoin="round"/>
</svg>
