<svg width="51" height="51" viewBox="0 0 51 51" fill="none" xmlns="http://www.w3.org/2000/svg">
<circle cx="25.5" cy="25.5" r="25" fill="#212529" stroke="#F9FBFC"/>
<path d="M38.4168 15.1796C37.1252 15.8125 35.8593 16.0696 34.5418 16.4584C33.0939 14.8244 30.9471 14.734 28.8843 15.5064C26.8215 16.2788 25.4705 18.1672 25.5002 20.3334V21.625C21.3087 21.7322 17.5758 19.8231 15.1668 16.4584C15.1668 16.4584 9.76508 26.0593 20.3335 30.6667C17.9155 32.2774 15.504 33.3637 12.5835 33.25C16.8563 35.5789 21.5128 36.3797 25.5441 35.2095C30.1682 33.8661 33.9683 30.4006 35.4266 25.2094C35.8616 23.6305 36.0776 21.9994 36.0686 20.3618C36.0686 20.0401 38.019 16.7813 38.4168 15.1783V15.1796Z" stroke="white" stroke-width="2" stroke-linecap="round" stroke-linejoin="round"/>
</svg>
